<?xml version="1.0" encoding="utf-8"?>
<!-- Generator: Adobe Illustrator 24.1.0, SVG Export Plug-In . SVG Version: 6.00 Build 0)  -->
<svg version="1.1"
	 id="svg14" xmlns:cc="http://creativecommons.org/ns#" xmlns:dc="http://purl.org/dc/elements/1.1/" xmlns:inkscape="http://www.inkscape.org/namespaces/inkscape" xmlns:rdf="http://www.w3.org/1999/02/22-rdf-syntax-ns#" xmlns:sodipodi="http://sodipodi.sourceforge.net/DTD/sodipodi-0.dtd" xmlns:svg="http://www.w3.org/2000/svg"
	 xmlns="http://www.w3.org/2000/svg" xmlns:xlink="http://www.w3.org/1999/xlink" x="0px" y="0px" viewBox="0 0 24 24"
	 style="enable-background:new 0 0 24 24;" xml:space="preserve">
<style type="text/css">
	.st0{fill:none;}
</style>
<sodipodi:namedview  bordercolor="#666666" borderopacity="1" gridtolerance="10" guidetolerance="10" id="namedview16" inkscape:current-layer="g12" inkscape:cx="30.711864" inkscape:cy="12" inkscape:pageopacity="0" inkscape:pageshadow="2" inkscape:window-height="1025" inkscape:window-maximized="1" inkscape:window-width="1853" inkscape:window-x="67" inkscape:window-y="27" inkscape:zoom="9.8333333" objecttolerance="10" pagecolor="#ffffff" showgrid="false">
	</sodipodi:namedview>
<g id="g5">
	<rect id="canvas_background" x="-1" y="-1" class="st0" width="582" height="402"/>
</g>
<g transform="translate(0.000000,1600.000000) scale(0.100000,-0.100000)">
	<path d="M27.8,15976.6c-2-0.3-3.4-0.6-5-1.3c-3.5-1.4-5.9-2.9-8.7-5.7c-3.6-3.6-5.7-7.6-6.8-12.6c-0.3-1.4-0.3-3.7-0.3-77.1v-75.6
		l0.4-1.6c1.1-5,3.2-8.8,6.7-12.4c3.6-3.6,7.8-5.8,12.8-6.8c1.4-0.3,6-0.3,93-0.3s91.7,0,93,0.3c5,1,9.1,3.2,12.8,6.8
		c3.6,3.5,5.6,7.4,6.7,12.4l0.4,1.6v75.6v75.6l-0.4,1.7c-1.1,5-3.2,8.8-6.7,12.4c-4,4-8.6,6.2-14.2,7
		C209.6,15976.9,29.6,15976.8,27.8,15976.6z M210.3,15960.5c3.2-0.6,5.8-3.2,6.4-6.3c0.1-0.5,0.2-2.9,0.2-5.3v-4.3H120H23.2v4.3
		c0,2.4,0.1,4.7,0.2,5.3c0.6,3.1,3.2,5.8,6.2,6.3C30.7,15960.7,209.1,15960.7,210.3,15960.5z M216.8,15867.6c0-43,0-61.1-0.2-61.8
		c-0.6-3.1-3.2-5.8-6.3-6.3c-1.4-0.3-179.3-0.3-180.6,0c-2.3,0.4-4.6,2.1-5.6,4.2c-0.3,0.6-0.6,1.6-0.7,2.1
		c-0.1,0.7-0.2,19.3-0.2,61.8v60.8H120h96.8V15867.6z"/>
	<path d="M60.3,15896.1l-5.7-5.7l13.3-13.3l13.3-13.3l-13.3-13.3l-13.3-13.3l5.7-5.7l5.7-5.7l19,19l19,19l-19,19
		c-10.4,10.4-19,19-19,19S63.4,15899.2,60.3,15896.1z"/>
	<path d="M120,15839.6v-8.1h32.3h32.3v8.1v8.1h-32.3H120V15839.6z"/>
</g>
</svg>
